<?xml version="1.0" encoding="UTF-8"?>
<svg width="24px" height="29px" viewBox="0 0 24 29" version="1.1" xmlns="http://www.w3.org/2000/svg" xmlns:xlink="http://www.w3.org/1999/xlink">
    <!-- Generator: Sketch 48.2 (47327) - http://www.bohemiancoding.com/sketch -->
    <title>Automatisering</title>
    <desc>Created with Sketch.</desc>
    <defs></defs>
    <g id="Home-–-Product-Categories-–-Icons" stroke="none" stroke-width="1" fill="none" fill-rule="evenodd" transform="translate(-487.000000, -2224.000000)">
        <g id="ICONS" transform="translate(210.000000, 2214.000000)">
            <g id="Automatisering" transform="translate(265.000000, 0.000000)">
                <g id="Box">
                    <rect id="Rectangle-path" x="0" y="0" width="47.85" height="48.846875"></rect>
                </g>
                <g id="Icon" transform="translate(12.750000, 9.953125)" fill="#0098DD" fill-rule="nonzero">
                    <g id="Group">
                        <path d="M0,0.19140625 L0,25.7632813 C0,27.409375 1.3125,28.7492188 2.925,28.7492188 L19.3875,28.7492188 C21,28.7492188 22.3125,27.409375 22.3125,25.7632813 L22.3125,0.19140625 L0,0.19140625 Z M7.575,24.5382813 L2.475,24.5382813 L2.475,21.5140625 L7.6125,21.5140625 L7.6125,24.5382813 L7.575,24.5382813 Z M11.175,27.2179688 L9.6375,25.6484375 L12.675,25.6484375 L11.175,27.2179688 Z M13.725,24.5382813 L8.5875,24.5382813 L8.5875,21.5140625 L13.725,21.5140625 L13.725,24.5382813 Z M9.6375,20.4039063 L11.175,18.834375 L12.7125,20.4039063 L9.6375,20.4039063 Z M19.875,24.5382813 L14.7375,24.5382813 L14.7375,21.5140625 L19.875,21.5140625 L19.875,24.5382813 Z M19.875,17.303125 L2.4375,17.303125 L2.4375,2.6796875 L19.875,2.6796875 L19.875,17.303125 Z" id="Shape"></path>
                        <path d="M5.025,13.6664063 L4.3125,14.2789063 L4.125,14.0492188 C4.05,13.934375 3.975,13.8195313 3.975,13.7046875 C3.975,13.6664063 3.975,13.628125 3.975,13.5898438 L4.425,10.9867188 L5.025,10.4507813 L5.475,10.9867188 L5.025,13.6664063 Z M7.7625,13.78125 L8.2875,14.4320313 L7.9875,14.7 C7.875,14.8148438 7.6875,14.853125 7.4625,14.853125 L5.175,14.853125 C4.9125,14.853125 4.8,14.8148438 4.6875,14.7 L4.4625,14.4320313 L5.2125,13.78125 L7.7625,13.78125 Z M5.7,9.8765625 L5.0625,10.4125 L4.65,9.8765625 L5.025,7.54140625 C5.1,7.1203125 5.1375,7.08203125 5.2875,6.92890625 L5.6625,6.62265625 L6.1125,7.196875 L5.7,9.8765625 Z M6.375,7.04375 L5.8875,6.46953125 L6.15,6.2015625 C6.3375,6.0484375 6.4875,5.971875 6.675,5.971875 L9.075,5.971875 C9.2625,5.971875 9.4125,6.0484375 9.525,6.2015625 L9.7125,6.46953125 L8.9625,7.04375 L6.375,7.04375 Z M8.475,10.9484375 L9.1125,10.4125 L9.525,10.9484375 L9.15,13.2453125 C9.075,13.7046875 9.075,13.7429688 8.8875,13.8578125 L8.475,14.1640625 L8.025,13.628125 L8.475,10.9484375 Z M9.1125,7.196875 L9.8625,6.584375 L10.0125,6.77578125 C10.125,6.890625 10.1625,7.04375 10.1625,7.15859375 C10.1625,7.196875 10.1625,7.2734375 10.1625,7.31171875 L9.7125,9.83828125 L9.1125,10.3742187 L8.6625,9.83828125 L9.1125,7.196875 Z" id="Shape"></path>
                        <polygon id="Shape" points="10.875 15.3125 10.2375 15.8484375 9.825 15.3125 10.0875 13.8195313 11.1375 13.8195313"></polygon>
                        <path d="M13.2375,13.6664063 L12.525,14.2789063 L12.3375,14.0492188 C12.2625,13.934375 12.1875,13.8195313 12.1875,13.7046875 C12.1875,13.6664063 12.1875,13.628125 12.1875,13.5898438 L12.6375,10.9867188 L13.2375,10.4507813 L13.6875,10.9867188 L13.2375,13.6664063 Z M15.975,13.78125 L16.5,14.4320313 L16.2,14.7 C16.0875,14.8148438 15.9,14.853125 15.675,14.853125 L13.3875,14.853125 C13.125,14.853125 13.0125,14.8148438 12.9,14.7 L12.675,14.4320313 L13.425,13.78125 L15.975,13.78125 Z M13.875,9.8765625 L13.2375,10.4125 L12.825,9.8765625 L13.2,7.54140625 C13.275,7.1203125 13.3125,7.08203125 13.4625,6.92890625 L13.8375,6.62265625 L14.2875,7.196875 L13.875,9.8765625 Z M14.55,7.04375 L14.0625,6.46953125 L14.325,6.2015625 C14.5125,6.0484375 14.6625,5.971875 14.85,5.971875 L17.25,5.971875 C17.4375,5.971875 17.5875,6.0484375 17.7,6.2015625 L17.8875,6.46953125 L17.1375,7.04375 L14.55,7.04375 Z M16.65,10.9484375 L17.2875,10.4125 L17.7,10.9484375 L17.325,13.2453125 C17.25,13.7046875 17.25,13.7429688 17.0625,13.8578125 L16.65,14.1640625 L16.2,13.628125 L16.65,10.9484375 Z M17.325,7.196875 L18.075,6.584375 L18.225,6.77578125 C18.3375,6.890625 18.375,7.04375 18.375,7.15859375 C18.375,7.196875 18.375,7.2734375 18.375,7.31171875 L17.925,9.83828125 L17.325,10.3742187 L16.875,9.83828125 L17.325,7.196875 Z" id="Shape"></path>
                    </g>
                </g>
            </g>
        </g>
    </g>
</svg>