<?xml version="1.0" encoding="UTF-8"?>
<svg width="23px" height="32px" viewBox="0 0 23 32" version="1.1" xmlns="http://www.w3.org/2000/svg" xmlns:xlink="http://www.w3.org/1999/xlink">
    <!-- Generator: Sketch 48.2 (47327) - http://www.bohemiancoding.com/sketch -->
    <title>Batterijen &amp; Opladers</title>
    <desc>Created with Sketch.</desc>
    <defs></defs>
    <g id="Home-–-Product-Categories-–-Icons" stroke="none" stroke-width="1" fill="none" fill-rule="evenodd" transform="translate(-754.000000, -2221.000000)">
        <g id="ICONS" transform="translate(210.000000, 2214.000000)">
            <g id="Batterijen-&amp;-Opladers" transform="translate(531.500000, 0.000000)">
                <g id="Box">
                    <rect id="Rectangle-path" x="0" y="0" width="47.85" height="48.846875"></rect>
                </g>
                <g id="Icon" transform="translate(12.750000, 7.273438)" fill="#0098DD" fill-rule="nonzero">
                    <path d="M11.8875,7.809375 L10.425,7.809375 L10.425,9.4171875 L8.925,9.4171875 L8.925,10.871875 L10.425,10.871875 L10.425,12.4796875 L11.8875,12.4796875 L11.8875,10.871875 L13.3875,10.871875 L13.3875,9.4171875 L11.8875,9.4171875 L11.8875,7.809375 Z M16.125,2.87109375 L15.45,0.8421875 C15.45,0.8421875 15.2625,0.34453125 14.7375,0.34453125 L7.575,0.34453125 C7.05,0.34453125 6.9,0.8421875 6.8625,0.8421875 L6.1875,2.87109375 L0,2.87109375 L0,28.4429687 C0,30.0890625 1.3125,31.4289062 2.925,31.4289062 L19.3875,31.4289062 C21,31.4289062 22.3125,30.0890625 22.3125,28.4429687 L22.3125,2.87109375 L16.125,2.87109375 Z M13.3875,28.1367187 L8.925,28.1367187 L8.925,26.7203125 L13.3875,26.7203125 L13.3875,28.1367187 Z M2.4375,20.4804687 L2.4375,5.359375 L19.875,5.359375 L19.875,13.475 L2.4375,20.4804687 Z" id="Shape"></path>
                </g>
            </g>
        </g>
    </g>
</svg>