<?xml version="1.0" encoding="UTF-8"?>
<svg width="26px" height="29px" viewBox="0 0 26 29" version="1.1" xmlns="http://www.w3.org/2000/svg" xmlns:xlink="http://www.w3.org/1999/xlink">
    <!-- Generator: Sketch 48.2 (47327) - http://www.bohemiancoding.com/sketch -->
    <title>Componenten - Passief</title>
    <desc>Created with Sketch.</desc>
    <defs></defs>
    <g id="Home-–-Product-Categories-–-Icons" stroke="none" stroke-width="1" fill="none" fill-rule="evenodd" transform="translate(-1282.000000, -2224.000000)">
        <g id="ICONS" transform="translate(210.000000, 2214.000000)">
            <g id="Componenten---Passief" transform="translate(1061.000000, 0.000000)">
                <g id="Box">
                    <rect id="Rectangle-path" x="0" y="0" width="47.85" height="48.846875"></rect>
                </g>
                <g id="icon" transform="translate(11.250000, 10.335938)" fill="#0098DD" fill-rule="nonzero">
                    <path d="M16.5,10.7953125 L8.8125,10.7953125 L8.8125,4.5171875 L16.5,4.5171875 L16.5,10.7953125 Z M4.3875,18.5664062 C3.975,18.5664062 3.6,18.9109375 3.6,19.3703125 C3.6,19.8296875 3.9375,20.1742187 4.3875,20.1742187 C4.8,20.1742187 5.175,19.8296875 5.175,19.3703125 C5.175,18.9109375 4.8375,18.5664062 4.3875,18.5664062 Z M25.275,0.03828125 L25.275,25.1125 C25.275,26.7585938 23.8125,28.0984375 21.975,28.0984375 L3.375,28.0984375 C1.5375,28.0984375 0.075,26.7585938 0.075,25.1125 L0.075,0.03828125 L25.275,0.03828125 Z M23.4,23.58125 C23.4,22.5859375 22.8375,21.74375 22.0125,21.3226563 L22.0125,6.54609375 L17.5125,6.54609375 L17.5125,3.521875 L7.8375,3.521875 L7.8375,6.54609375 L3.3,6.54609375 L3.3,17.1117188 C2.475,17.5328125 1.9125,18.375 1.9125,19.3703125 C1.9125,20.7484375 3.0375,21.896875 4.3875,21.896875 C5.3625,21.896875 6.1875,21.3226563 6.6,20.4804688 L9.825,20.4804688 L9.8625,20.5570313 L10.5375,21.3992188 L12.8625,24.2703125 L12.9,24.346875 L13.2375,24.7679688 L18.675,24.7679688 C19.0875,25.6101563 19.9125,26.184375 20.8875,26.184375 C22.3125,26.1078125 23.4,24.9976563 23.4,23.58125 Z M17.5125,11.790625 L7.8375,11.790625 L7.8375,8.76640625 L5.475,8.76640625 L5.475,17.0734375 C5.9625,17.303125 6.375,17.7242187 6.6,18.221875 L10.875,18.221875 L11.2125,18.6429687 L12.9375,20.7484375 L13.6125,21.5523437 L14.2875,22.3945312 L14.325,22.4710937 L18.7125,22.4710937 C18.9375,21.9734375 19.35,21.590625 19.8375,21.3226562 L19.8375,8.76640625 L17.475,8.76640625 L17.475,11.790625 L17.5125,11.790625 Z M20.925,22.815625 C20.475,22.815625 20.1375,23.1601562 20.1375,23.6195313 C20.1375,24.040625 20.475,24.4234375 20.925,24.4234375 C21.3375,24.4234375 21.7125,24.0789063 21.7125,23.6195313 C21.7125,23.1601562 21.375,22.815625 20.925,22.815625 Z" id="Shape"></path>
                </g>
            </g>
        </g>
    </g>
</svg>