<?xml version="1.0" encoding="UTF-8"?>
<svg width="26px" height="29px" viewBox="0 0 26 29" version="1.1" xmlns="http://www.w3.org/2000/svg" xmlns:xlink="http://www.w3.org/1999/xlink">
    <!-- Generator: Sketch 48.2 (47327) - http://www.bohemiancoding.com/sketch -->
    <title>Componenten - Actief</title>
    <desc>Created with Sketch.</desc>
    <defs></defs>
    <g id="Home-–-Product-Categories-–-Icons" stroke="none" stroke-width="1" fill="none" fill-rule="evenodd" transform="translate(-1017.000000, -2224.000000)">
        <g id="ICONS" transform="translate(210.000000, 2214.000000)">
            <g id="Componenten---Actief" transform="translate(796.250000, 0.000000)">
                <g id="Box">
                    <rect id="Rectangle-path" x="0" y="0" width="47.85" height="48.846875"></rect>
                </g>
                <g id="Icon" transform="translate(11.250000, 10.335938)" fill="#0098DD" fill-rule="nonzero">
                    <path d="M4.3875,18.528125 C3.975,18.528125 3.6,18.8726563 3.6,19.3320313 C3.6,19.753125 3.9375,20.1359375 4.3875,20.1359375 C4.8375,20.1359375 5.175,19.7914063 5.175,19.3320313 C5.175,18.9109375 4.8375,18.528125 4.3875,18.528125 Z M16.725,12.5945312 L15.75,12.5945312 L15.75,8.8046875 L8.625,12.5945312 L8.625,8.76640625 L5.5125,8.76640625 L5.5125,17.0734375 C6,17.303125 6.4125,17.7242187 6.6375,18.221875 L10.875,18.221875 L14.325,22.4710937 L18.7125,22.4710937 C18.9375,21.9734375 19.35,21.5523437 19.8375,21.3226562 L19.8375,8.76640625 L16.725,8.76640625 L16.725,12.5945312 Z M9.6,4.3640625 L9.6,10.9101563 L15.75,7.65625 L9.6,4.3640625 Z M0.0375,0.03828125 L0.0375,25.1125 C0.0375,26.7585938 1.5375,28.0984375 3.3375,28.0984375 L21.975,28.0984375 C23.8125,28.0984375 25.275,26.7585938 25.275,25.1125 L25.275,0.03828125 L0.0375,0.03828125 Z M20.925,26.1078125 C19.95,26.1078125 19.125,25.5335937 18.7125,24.6914062 L13.3125,24.6914062 L9.8625,20.4421875 L6.6375,20.4421875 C6.225,21.284375 5.4,21.8585937 4.425,21.8585937 C3.075,21.8585937 1.95,20.7101562 1.95,19.3320312 C1.95,18.3367187 2.5125,17.4945312 3.3375,17.0734375 L3.3375,6.5078125 L8.625,6.5078125 L8.625,2.6796875 L15.75,6.5078125 L15.75,2.71796875 L16.725,2.71796875 L16.725,6.54609375 L22.0125,6.54609375 L22.0125,21.3609375 C22.8375,21.7820312 23.4,22.6242187 23.4,23.6195312 C23.4,24.9976562 22.3125,26.1078125 20.925,26.1078125 Z M20.9625,22.7773437 C20.5125,22.7773437 20.175,23.121875 20.175,23.58125 C20.175,24.0023437 20.5125,24.3851563 20.9625,24.3851563 C21.375,24.3851563 21.75,24.040625 21.75,23.58125 C21.7125,23.1601562 21.375,22.7773437 20.9625,22.7773437 Z" id="Shape"></path>
                </g>
            </g>
        </g>
    </g>
</svg>