<?xml version="1.0" encoding="UTF-8"?>
<svg width="26px" height="38px" viewBox="0 0 26 38" version="1.1" xmlns="http://www.w3.org/2000/svg" xmlns:xlink="http://www.w3.org/1999/xlink">
    <!-- Generator: Sketch 48.2 (47327) - http://www.bohemiancoding.com/sketch -->
    <title>Computer &amp; Kantoor</title>
    <desc>Created with Sketch.</desc>
    <defs></defs>
    <g id="Home-–-Product-Categories-–-Icons" stroke="none" stroke-width="1" fill="none" fill-rule="evenodd" transform="translate(-221.000000, -2291.000000)">
        <g id="ICONS" transform="translate(210.000000, 2214.000000)">
            <g id="Computer-&amp;-Kantoor" transform="translate(0.000000, 72.000000)">
                <g id="Box">
                    <rect id="Rectangle-path" x="0" y="0" width="47.85" height="48.846875"></rect>
                </g>
                <g id="Icon" transform="translate(10.875000, 5.742188)" fill="#0098DD" fill-rule="nonzero">
                    <path d="M25.7625,18.06875 L25.7625,0.153125 L0.3,0.153125 L0.3,18.0304688 L3.225,18.0304688 L3.225,19.2171875 L0.3,19.2171875 L0.3,33.9171875 C0.3,34.0703125 0.3,34.146875 0.3,34.2617188 C0.3,34.3765625 0.3,34.4914063 0.3,34.60625 C0.4125,36.0609375 1.3125,37.1710938 2.4,37.1710938 L23.625,37.1710938 C24.7875,37.1710938 25.725,35.8695313 25.725,34.2617188 L25.725,19.2554688 L22.8,19.2554688 L22.8,18.06875 L25.7625,18.06875 Z M1.275,16.3460938 L1.275,1.684375 L24.825,1.684375 L24.825,16.3078125 L1.275,16.3078125 L1.275,16.3460938 Z M4.65,28.328125 L2.7,28.328125 L2.7,26.3375 L4.65,26.3375 L4.65,28.328125 Z M4.65,25.6484375 L2.7,25.6484375 L2.7,23.6578125 L4.65,23.6578125 L4.65,25.6484375 Z M4.65,22.96875 L2.7,22.96875 L2.7,20.978125 L4.65,20.978125 L4.65,22.96875 Z M7.3125,28.328125 L5.3625,28.328125 L5.3625,26.3375 L7.3125,26.3375 L7.3125,28.328125 Z M7.3125,25.6484375 L5.3625,25.6484375 L5.3625,23.6578125 L7.3125,23.6578125 L7.3125,25.6484375 Z M7.3125,22.96875 L5.3625,22.96875 L5.3625,20.978125 L7.3125,20.978125 L7.3125,22.96875 Z M10.0125,23.6195313 L10.0125,25.6484375 L8.0625,25.6484375 L8.0625,23.6578125 L10.0125,23.6578125 L10.0125,23.6195313 Z M8.0625,22.96875 L8.0625,20.978125 L10.0125,20.978125 L10.0125,22.96875 L8.0625,22.96875 Z M10.0125,26.2992188 L10.0125,28.328125 L8.0625,28.328125 L8.0625,26.3375 L10.0125,26.3375 L10.0125,26.2992188 Z M16.875,35.6398437 L9.225,35.6398437 L9.225,31.54375 L16.875,31.54375 L16.875,35.6398437 Z M12.7125,23.6195313 L12.7125,25.6484375 L10.7625,25.6484375 L10.7625,23.6578125 L12.7125,23.6578125 L12.7125,23.6195313 Z M10.725,22.96875 L10.725,20.978125 L12.675,20.978125 L12.675,22.96875 L10.725,22.96875 Z M12.7125,26.2992188 L12.7125,28.328125 L10.7625,28.328125 L10.7625,26.3375 L12.7125,26.3375 L12.7125,26.2992188 Z M15.375,23.6195313 L15.375,25.6484375 L13.425,25.6484375 L13.425,23.6578125 L15.375,23.6578125 L15.375,23.6195313 Z M13.425,22.96875 L13.425,20.978125 L15.375,20.978125 L15.375,22.96875 L13.425,22.96875 Z M15.375,26.2992188 L15.375,28.328125 L13.425,28.328125 L13.425,26.3375 L15.375,26.3375 L15.375,26.2992188 Z M18.075,28.328125 L16.125,28.328125 L16.125,26.3375 L18.075,26.3375 L18.075,28.328125 Z M18.075,25.6484375 L16.125,25.6484375 L16.125,23.6578125 L18.075,23.6578125 L18.075,25.6484375 Z M18.075,22.96875 L16.125,22.96875 L16.125,20.978125 L18.075,20.978125 L18.075,22.96875 Z M20.7375,28.328125 L18.7875,28.328125 L18.7875,26.3375 L20.7375,26.3375 L20.7375,28.328125 Z M20.7375,25.6484375 L18.7875,25.6484375 L18.7875,23.6578125 L20.7375,23.6578125 L20.7375,25.6484375 Z M20.7375,22.96875 L18.7875,22.96875 L18.7875,20.978125 L20.7375,20.978125 L20.7375,22.96875 Z M23.4375,28.328125 L21.4875,28.328125 L21.4875,26.3375 L23.4375,26.3375 L23.4375,28.328125 Z M23.4375,25.6484375 L21.4875,25.6484375 L21.4875,23.6578125 L23.4375,23.6578125 L23.4375,25.6484375 Z M23.4375,22.96875 L21.4875,22.96875 L21.4875,20.978125 L23.4375,20.978125 L23.4375,22.96875 Z M4.6125,19.2554687 L4.6125,18.06875 L21.4875,18.06875 L21.4875,19.2554687 L4.6125,19.2554687 Z" id="Shape"></path>
                </g>
            </g>
        </g>
    </g>
</svg>