<?xml version="1.0" encoding="UTF-8"?>
<svg width="26px" height="29px" viewBox="0 0 26 29" version="1.1" xmlns="http://www.w3.org/2000/svg" xmlns:xlink="http://www.w3.org/1999/xlink">
    <!-- Generator: Sketch 48.2 (47327) - http://www.bohemiancoding.com/sketch -->
    <title>Development-kits</title>
    <desc>Created with Sketch.</desc>
    <defs></defs>
    <g id="Home-–-Product-Categories-–-Icons" stroke="none" stroke-width="1" fill="none" fill-rule="evenodd" transform="translate(-486.000000, -2296.000000)">
        <g id="ICONS" transform="translate(210.000000, 2214.000000)">
            <g id="Development-kits" transform="translate(265.000000, 72.000000)">
                <g id="Box">
                    <rect id="Rectangle-path" x="0" y="0" width="47.85" height="48.846875"></rect>
                </g>
                <g id="Icon" transform="translate(11.250000, 10.335938)" fill="#0098DD" fill-rule="nonzero">
                    <path d="M0.0375,0.03828125 L0.0375,25.1125 C0.0375,26.7585938 1.5375,28.0984375 3.3375,28.0984375 L21.975,28.0984375 C23.8125,28.0984375 25.275,26.7585938 25.275,25.1125 L25.275,0.03828125 L0.0375,0.03828125 Z M3,26.796875 C2.1,26.796875 1.35,26.03125 1.35,25.1125 C1.35,24.19375 2.1,23.428125 3,23.428125 C3.9,23.428125 4.65,24.19375 4.65,25.1125 C4.65,26.03125 3.9,26.796875 3,26.796875 Z M3,4.746875 C2.1,4.746875 1.35,3.98125 1.35,3.0625 C1.35,2.14375 2.1,1.378125 3,1.378125 C3.9,1.378125 4.65,2.14375 4.65,3.0625 C4.65,3.98125 3.9,4.746875 3,4.746875 Z M19.125,9.1875 L18,9.1875 L18,10.3359375 L19.125,10.3359375 L19.125,11.33125 L18,11.33125 L18,12.4796875 L19.125,12.4796875 L19.125,13.475 L18,13.475 L18,14.6234375 L19.125,14.6234375 L19.125,15.61875 L18,15.61875 L18,16.7671875 L19.125,16.7671875 L19.125,17.7625 L18,17.7625 L18,18.9109375 L19.125,18.9109375 L19.125,19.90625 L18,19.90625 L18,20.7484375 L7.3125,20.7484375 L7.3125,19.90625 L6.1875,19.90625 L6.1875,18.9109375 L7.3125,18.9109375 L7.3125,17.7625 L6.1875,17.7625 L6.1875,16.7671875 L7.3125,16.7671875 L7.3125,15.61875 L6.1875,15.61875 L6.1875,14.6234375 L7.3125,14.6234375 L7.3125,13.475 L6.1875,13.475 L6.1875,12.4796875 L7.3125,12.4796875 L7.3125,11.33125 L6.1875,11.33125 L6.1875,10.3359375 L7.3125,10.3359375 L7.3125,9.1875 L6.1875,9.1875 L6.1875,8.1921875 L7.3125,8.1921875 L7.3125,7.35 L18,7.35 L18,8.1921875 L19.125,8.1921875 L19.125,9.1875 Z M22.35,26.796875 C21.45,26.796875 20.7,26.03125 20.7,25.1125 C20.7,24.19375 21.45,23.428125 22.35,23.428125 C23.25,23.428125 24,24.19375 24,25.1125 C23.9625,26.03125 23.25,26.796875 22.35,26.796875 Z M22.35,4.746875 C21.45,4.746875 20.7,3.98125 20.7,3.0625 C20.7,2.14375 21.45,1.378125 22.35,1.378125 C23.25,1.378125 24,2.14375 24,3.0625 C23.9625,3.98125 23.25,4.746875 22.35,4.746875 Z" id="Shape"></path>
                </g>
            </g>
        </g>
    </g>
</svg>