<?xml version="1.0" encoding="UTF-8"?>
<svg width="39px" height="34px" viewBox="0 0 39 34" version="1.1" xmlns="http://www.w3.org/2000/svg" xmlns:xlink="http://www.w3.org/1999/xlink">
    <!-- Generator: Sketch 48.2 (47327) - http://www.bohemiancoding.com/sketch -->
    <title>Gereedschap &amp; Werkplaats</title>
    <desc>Created with Sketch.</desc>
    <defs></defs>
    <g id="Home-–-Product-Categories-–-Icons" stroke="none" stroke-width="1" fill="none" fill-rule="evenodd" transform="translate(-1010.000000, -2295.000000)">
        <g id="ICONS" transform="translate(210.000000, 2214.000000)">
            <g id="Gereedschap-&amp;-Werkplaats" transform="translate(796.000000, 72.000000)">
                <g id="Box">
                    <rect id="Rectangle-path" x="0" y="0" width="47.85" height="48.846875"></rect>
                </g>
                <g id="Icon" transform="translate(4.125000, 9.570312)" fill="#0099DB" fill-rule="nonzero">
                    <path d="M32.85,3.7515625 L34.6125,5.55078125 L36.3375,5.55078125 L34.575,3.7515625 L32.85,3.7515625 Z M25.9125,0.30625 L25.9125,10.5273437 C27.675,8.9578125 27.9,7.69453125 27.9,7.69453125 L29.325,7.69453125 L29.325,7.00546875 C29.325,7.00546875 30.1125,6.9671875 30.9375,6.7375 L30.9375,5.5890625 L33.0375,5.5890625 L31.275,3.78984375 L30.9375,3.78984375 L30.9375,2.64140625 C30.1125,2.3734375 29.325,2.3734375 29.325,2.3734375 L29.325,1.684375 L27.9,1.684375 C27.9,0.49765625 26.325,0.30625 25.9125,0.30625 Z M0.3,27.6773437 L0.3,29.9359375 C0.3,31.6585937 1.6875,33.075 3.375,33.1132812 L8.025,33.1132812 L12.675,33.1132812 C12.675,33.1132812 12.675,33.1132812 12.675,33.1132812 C14.3625,33.1132812 15.75,31.696875 15.75,29.9359375 L15.75,27.6773437 L0.3,27.6773437 Z M16.125,18.6429687 C15.7875,18.1070312 15.9,17.0734375 16.0125,16.4226562 C15.525,16.4226562 14.925,16.4609375 14.6625,16.4609375 C14.5125,16.6523437 14.25,17.2648437 14.025,17.8773437 C14.025,17.8773437 13.65,18.8726562 13.425,19.5234375 C14.0625,19.5234375 14.7375,19.5234375 15.1125,19.5617187 C16.0125,19.6382812 16.65,19.5234375 16.125,18.6429687 Z M0.4125,26.2609375 L15.8625,26.2609375 C15.8625,24.0023437 14.1,23.0835937 13.575,22.8539062 C13.5375,22.8539062 13.5,22.815625 13.4625,22.815625 C13.425,22.815625 13.425,22.815625 13.425,22.815625 C13.275,22.7390625 13.125,22.6625 13.0125,22.5859375 C12,21.9351562 11.925,20.7484375 12.225,19.5234375 L12.975,17.4945312 C13.2375,16.7289062 13.425,16.2695312 13.65,15.9632812 C13.6875,15.925 13.725,15.8101562 13.725,15.8101562 C13.7625,15.771875 13.8375,15.6570312 13.875,15.61875 C13.875,15.61875 13.95,15.5421875 13.9875,15.5039062 C13.9875,15.5039062 14.0625,15.465625 14.0625,15.4273437 C14.0625,15.4273437 14.1,15.3890625 14.1,15.3890625 C14.1,15.3890625 14.1375,15.3507812 14.175,15.3507812 C14.175,15.3507812 14.2125,15.3125 14.25,15.3125 C14.25,15.3125 14.25,15.3125 14.25,15.3125 C14.2875,15.3125 14.3625,15.2742187 14.4,15.2742187 C14.5875,15.2359375 14.8875,15.2359375 15.2625,15.1976562 C15.675,15.1976562 16.125,15.1976562 16.35,15.1976562 C22.9875,14.39375 24.6,11.2929687 24.6,11.2929687 L24.6,0.30625 L8.5125,0.30625 C6.9,0.30625 5.5875,1.64609375 5.5875,3.2921875 L5.55,12.2117187 C0.2625,16.9585937 0.4125,26.2609375 0.4125,26.2609375 Z M20.3625,3.2921875 C20.3625,2.75625 20.775,2.296875 21.3375,2.296875 C21.8625,2.296875 22.3125,2.75625 22.3125,3.2921875 L22.3125,11.5226562 C22.3125,12.0585937 21.9,12.5179687 21.3375,12.5179687 C20.8125,12.5179687 20.3625,12.0585937 20.3625,11.5226562 L20.3625,3.2921875 Z M9.4125,2.94765625 C10.05,2.48828125 10.8,2.2203125 11.625,2.2203125 C13.7625,2.2203125 15.525,4.01953125 15.525,6.2015625 C15.525,7.04375 15.2625,7.809375 14.8125,8.46015625 L9.4125,2.94765625 Z M7.725,6.2015625 C7.725,5.359375 7.9875,4.59375 8.4375,3.94296875 L13.875,9.49375 C13.2375,9.953125 12.4875,10.2210938 11.6625,10.2210938 C9.45,10.1828125 7.725,8.421875 7.725,6.2015625 Z M36.1125,3.7515625 L37.875,5.55078125 L38.2125,5.20625 L38.2125,4.0578125 L37.875,3.71328125 L36.1125,3.71328125 L36.1125,3.7515625 Z" id="Shape"></path>
                </g>
            </g>
        </g>
    </g>
</svg>