<?xml version="1.0" encoding="UTF-8"?>
<svg width="30px" height="37px" viewBox="0 0 30 37" version="1.1" xmlns="http://www.w3.org/2000/svg" xmlns:xlink="http://www.w3.org/1999/xlink">
    <!-- Generator: Sketch 48.2 (47327) - http://www.bohemiancoding.com/sketch -->
    <title>Huistechniek</title>
    <desc>Created with Sketch.</desc>
    <defs></defs>
    <g id="Home-–-Product-Categories-–-Icons" stroke="none" stroke-width="1" fill="none" fill-rule="evenodd" transform="translate(-1280.000000, -2293.000000)">
        <g id="ICONS" transform="translate(210.000000, 2214.000000)">
            <g id="Huistechniek" transform="translate(1061.000000, 72.000000)">
                <g id="Box">
                    <rect id="Rectangle-path" x="0" y="0" width="47.85" height="48.846875"></rect>
                </g>
                <g id="Icon" transform="translate(9.375000, 6.890625)" fill="#0098DD" fill-rule="nonzero">
                    <path d="M27.9375,32.0414063 C28.3875,32.0414063 28.725,31.696875 28.725,31.2375 C28.725,30.778125 28.3875,30.4335938 27.9375,30.4335938 L25.725,30.4335938 L25.725,29.3617188 L20.775,29.3617188 C19.3125,29.3617188 18.0375,30.31875 17.55,31.6585938 L5.7375,31.6585938 C3.9375,31.6585938 2.475,30.165625 2.475,28.328125 C2.475,27.3328125 2.8875,26.4523438 3.5625,25.8398438 C3.975,26.9882813 5.025,27.8304688 6.3,27.8304688 L22.7625,27.8304688 C24.375,27.8304688 25.6875,26.490625 25.6875,24.8445313 L25.6875,14.8148438 L28.725,14.8148438 L14.55,0.153125 L0.3375,14.8148438 L3.375,14.8148438 L3.375,23.0070313 C1.425,23.9257813 0.0375,25.9164063 0.0375,28.2515625 C0.0375,31.4289063 2.5875,34.0320313 5.7,34.0320313 L17.5125,34.0320313 C18,35.371875 19.2375,36.3289063 20.7375,36.3289063 L25.65,36.3289063 L25.65,35.2570313 L27.8625,35.2570313 C28.3125,35.2570313 28.65,34.9125 28.65,34.453125 C28.65,33.99375 28.3125,33.6492188 27.8625,33.6492188 L25.65,33.6492188 L25.65,32.0414063 L27.9375,32.0414063 Z M16.0125,14.8148438 L22.725,14.8148438 L22.725,21.6671875 L16.0125,21.6671875 L16.0125,14.8148438 Z M6.375,14.8148438 L13.0875,14.8148438 L13.0875,21.6671875 L6.375,21.6671875 L6.375,14.8148438 Z" id="Shape"></path>
                </g>
            </g>
        </g>
    </g>
</svg>