<?xml version="1.0" encoding="UTF-8"?>
<svg width="24px" height="21px" viewBox="0 0 24 21" version="1.1" xmlns="http://www.w3.org/2000/svg" xmlns:xlink="http://www.w3.org/1999/xlink">
    <!-- Generator: Sketch 48.2 (47327) - http://www.bohemiancoding.com/sketch -->
    <title>Kabels</title>
    <desc>Created with Sketch.</desc>
    <defs></defs>
    <g id="Home-–-Product-Categories-–-Icons" stroke="none" stroke-width="1" fill="none" fill-rule="evenodd" transform="translate(-222.000000, -2376.000000)">
        <g id="ICONS" transform="translate(210.000000, 2214.000000)">
            <g id="Kabels" transform="translate(0.000000, 148.000000)">
                <g id="Box">
                    <rect id="Rectangle-path" x="0" y="0" width="47.85" height="48.846875"></rect>
                </g>
                <g id="Icon" transform="translate(12.000000, 13.781250)" fill="#0098DD" fill-rule="nonzero">
                    <path d="M22.5,3.40703125 L22.5,1.1484375 C22.5,0.6890625 22.1625,0.34453125 21.7125,0.34453125 C21.2625,0.34453125 20.925,0.6890625 20.925,1.1484375 L20.925,3.40703125 L19.35,3.40703125 L19.35,1.1484375 C19.35,0.6890625 19.0125,0.34453125 18.5625,0.34453125 C18.1125,0.34453125 17.775,0.6890625 17.775,1.1484375 L17.775,3.40703125 L16.725,3.40703125 L16.725,8.421875 C16.725,9.91484375 17.6625,11.2164063 18.9375,11.7140625 L18.9375,15.0828125 C18.9375,16.9585938 17.475,18.4515625 15.6375,18.4515625 C13.8375,18.4515625 12.3375,16.9585938 12.3375,15.0828125 L12.3375,6.16328125 C12.3375,4.2109375 11.3625,2.45 9.9375,1.41640625 C9,0.72734375 7.875,0.34453125 6.6375,0.34453125 C3.4875,0.34453125 0.9375,2.94765625 0.9375,6.16328125 L0.9375,6.5078125 L0.9375,6.54609375 L0.3,7.196875 L0.3,13.9726563 L0.9375,13.9726563 L0.9375,15.159375 L1.3875,15.159375 L1.3875,20.059375 C1.3875,20.51875 1.725,20.8632813 2.175,20.8632813 C2.625,20.8632813 2.9625,20.51875 2.9625,20.059375 L2.9625,15.159375 L3.3375,15.159375 L3.3375,13.9726563 L4.0125,13.9726563 L4.0125,7.23515625 L3.3375,6.54609375 L3.3375,6.2015625 C3.3375,4.32578125 4.8,2.8328125 6.6375,2.8328125 C8.4375,2.8328125 9.9375,4.32578125 9.9375,6.2015625 L9.9375,15.1210938 C9.9375,17.0734375 10.9125,18.7960938 12.3375,19.8679688 C12.3375,19.8679688 12.3375,19.8679688 12.3375,19.8679688 C13.275,20.5570313 14.4,20.9398438 15.6375,20.9398438 C18.7875,20.9398438 21.3375,18.3367188 21.3375,15.1210938 L21.3375,11.7523438 C22.65,11.2546875 23.5875,9.99140625 23.5875,8.46015625 L23.5875,3.40703125 L22.5,3.40703125 Z" id="Shape"></path>
                </g>
            </g>
        </g>
    </g>
</svg>