<?xml version="1.0" encoding="UTF-8"?>
<svg width="30px" height="36px" viewBox="0 0 30 36" version="1.1" xmlns="http://www.w3.org/2000/svg" xmlns:xlink="http://www.w3.org/1999/xlink">
    <!-- Generator: Sketch 48.2 (47327) - http://www.bohemiancoding.com/sketch -->
    <title>Meettechniek &amp; Voedingen</title>
    <desc>Created with Sketch.</desc>
    <defs></defs>
    <g id="Home-–-Product-Categories-–-Icons" stroke="none" stroke-width="1" fill="none" fill-rule="evenodd" transform="translate(-484.000000, -2368.000000)">
        <g id="ICONS" transform="translate(210.000000, 2214.000000)">
            <g id="Meettechniek-&amp;-Voedingen" transform="translate(265.000000, 148.000000)">
                <g id="Box">
                    <rect id="Rectangle-path" x="0" y="0" width="47.85" height="48.846875"></rect>
                </g>
                <g id="Icon" transform="translate(9.375000, 6.507813)" fill="#0098DD" fill-rule="nonzero">
                    <path d="M28.0875,32.8070313 L23.025,32.8070313 L23.025,31.7351563 L12.2625,31.7351563 L11.5875,32.4242188 L5.925,32.4242188 C4.125,32.4242188 2.625,30.93125 2.625,29.0554688 C2.625,28.1367188 3,27.2945313 3.6,26.6820313 C4.0125,27.7921875 5.1,28.5578125 6.3,28.5578125 L22.7625,28.5578125 C24.375,28.5578125 25.6875,27.2179688 25.6875,25.571875 L25.6875,0 L3.4125,0 L3.4125,23.8109375 C1.5375,24.7679688 0.225,26.7585938 0.225,29.0171875 C0.225,32.2328125 2.775,34.8359375 5.925,34.8359375 L11.625,34.8359375 L12.2625,35.4867188 L23.0625,35.4867188 L23.0625,34.4148438 L28.125,34.4148438 C28.575,34.4148438 28.9125,34.0703125 28.9125,33.6109375 C28.875,33.1515625 28.5375,32.8070313 28.0875,32.8070313 Z M14.55,26.4523438 C11.25,26.4523438 8.5875,23.734375 8.5875,20.365625 C8.5875,16.996875 11.25,14.2789063 14.55,14.2789063 C17.85,14.2789063 20.5125,16.996875 20.5125,20.365625 C20.5125,23.734375 17.85,26.4523438 14.55,26.4523438 Z M16.425,10.7570313 C16.425,10.71875 16.425,10.71875 16.425,10.6804688 C16.425,9.60859375 15.5625,8.76640625 14.55,8.76640625 C13.5,8.76640625 12.675,9.646875 12.675,10.6804688 C12.675,10.71875 12.675,10.71875 12.675,10.7570313 L7.7625,10.7570313 C8.1375,9.30234375 8.925,8.0390625 9.975,7.08203125 L11.925,9.30234375 L12.9,8.23046875 L10.725,6.54609375 C11.8125,5.78046875 13.125,5.359375 14.55,5.359375 C17.8125,5.359375 20.55,7.65625 21.3375,10.7570313 L16.425,10.7570313 Z M5.9625,2.64140625 L23.175,2.64140625 L23.175,10.7953125 L23.1375,10.7953125 C22.35,6.7375 18.825,3.63671875 14.5875,3.63671875 C12.6,3.63671875 10.7625,4.32578125 9.3,5.47421875 L7.0875,3.7515625 L8.8875,5.81875 C7.4625,7.08203125 6.45,8.84296875 6.0375,10.7953125 L6,10.7953125 L6,2.64140625 L5.9625,2.64140625 Z M14.55,15.8867188 L15.3375,17.3414063 L15.3375,20.365625 C15.3375,20.825 14.9625,21.1695313 14.55,21.1695313 C14.1,21.1695313 13.7625,20.7867188 13.7625,20.365625 L13.7625,17.3414063 L14.55,15.8867188 C12.15,15.8867188 10.1625,17.8773438 10.1625,20.365625 C10.1625,22.815625 12.1125,24.8445313 14.55,24.8445313 C16.95,24.8445313 18.9375,22.8539063 18.9375,20.365625 C18.9375,17.8773438 16.9875,15.8867188 14.55,15.8867188 Z" id="Shape"></path>
                </g>
            </g>
        </g>
    </g>
</svg>