<svg id="Ebene_1" data-name="Ebene 1" xmlns="http://www.w3.org/2000/svg" viewBox="0 0 127.6 127.6"><defs><style>.cls-1{fill:none;}.cls-2{fill:#0d9ddb;}</style></defs><title>PICTO-16_Education</title><g id="Box"><rect class="cls-1" width="127.6" height="127.6"/></g><path class="cls-2" d="M32.8,75.1a2.32,2.32,0,0,0-1.49-2.16V69.71l-1.39-.93v4.07a2.31,2.31,0,0,0-.58,4.26c-0.92,2.29-2.16,7-2.77,16.65,0,0,3,3.25,8,0,0,0-.86-11.71-2.86-16.7A2.31,2.31,0,0,0,32.8,75.1Z" transform="translate(0 0)"/><path class="cls-2" d="M108.21,58.93L63.49,34.05,19.05,58.93l15.32,8.28s-0.93-8.54,6.87-11.14,25.26-6.78,43.19,0c0,0,9.29,2.85,8.45,11.14Z" transform="translate(0 0)"/><path class="cls-2" d="M84.15,60.41c-4.27-1.57-6.5-3.05-20.66-3.52-14.17.46-16.39,2-20.66,3.52a6.34,6.34,0,0,0-4.36,5.49s0.09,6,0,9.38c0,0.16,0,.31,0,0.46a4.37,4.37,0,0,0,3.24,3.72c6.78,2.32,21.78,2.88,21.78,2.88s15-.56,21.78-2.88a4.37,4.37,0,0,0,3.24-3.72c0-.15,0-0.3,0-0.46-0.09-3.34,0-9.38,0-9.38A6.34,6.34,0,0,0,84.15,60.41ZM63.63,79.56c-12.31,0-22.29-1.33-22.29-3s10-3,22.29-3,22.29,1.33,22.29,3S75.94,79.56,63.63,79.56Z" transform="translate(0 0)"/></svg>