<?xml version="1.0" encoding="utf-8"?>
<!-- Generator: Adobe Illustrator 22.1.0, SVG Export Plug-In . SVG Version: 6.00 Build 0)  -->
<svg version="1.1" id="Ebene_1" xmlns="http://www.w3.org/2000/svg" xmlns:xlink="http://www.w3.org/1999/xlink" x="0px" y="0px"
	 viewBox="0 0 113.4 113.4" style="enable-background:new 0 0 113.4 113.4;" xml:space="preserve">
<style type="text/css">
	.st0{fill:#0098DD;}
</style>
<g>
	<path class="st0" d="M100,31.4v-6.1H86v-9.7c0-0.1,0-0.2,0-0.2v-4.5h-4.7h-49h-4.8v4.5h0c0,0.1,0,0.2,0,0.2v9.7h-14v6.1h14v8.7
		H13.3v6.1h14.2v51.5c0,2.6,2.1,4.8,4.8,4.8h49c2.6,0,4.8-2.1,4.8-4.8V46.3h13.9v-6.1H86v-8.7H100z M80.2,96.6H33.3V46.3h46.9V96.6z
		 M80.2,40.1H33.3v-8.7h46.9V40.1z M80.2,25.3H33.3v-8.6h46.9V25.3z"/>
	<path class="st0" d="M56.7,67.8c3.7,0,6.8-3,6.8-6.8s-3-6.8-6.8-6.8S50,57.3,50,61S53,67.8,56.7,67.8z"/>
	<path class="st0" d="M56.7,86.8c3.7,0,6.8-3,6.8-6.8s-3-6.8-6.8-6.8S50,76.3,50,80S53,86.8,56.7,86.8z"/>
</g>
</svg>
