<?xml version="1.0" encoding="utf-8"?>
<!-- Generator: Adobe Illustrator 22.1.0, SVG Export Plug-In . SVG Version: 6.00 Build 0)  -->
<svg version="1.1" id="Ebene_1" xmlns="http://www.w3.org/2000/svg" xmlns:xlink="http://www.w3.org/1999/xlink" x="0px" y="0px"
	 viewBox="0 0 113.4 113.4" style="enable-background:new 0 0 113.4 113.4;" xml:space="preserve">
<style type="text/css">
	.st0{fill:#0098DD;}
</style>
<g>
	<path class="st0" d="M52.3,32.8c0,2.4,2,4.4,4.4,4.4s4.4-2,4.4-4.4s-2-4.4-4.4-4.4S52.3,30.4,52.3,32.8z"/>
	<path class="st0" d="M79.4,12.5H34h-4.1v4.1v2.8v77.5c0,2.2,1.8,4.1,4.1,4.1h45.4c2.2,0,4.1-1.8,4.1-4.1V19.3v-2.8v-4.1H79.4z
		 M69.5,32.8c0,7-5.7,12.8-12.8,12.8c-7,0-12.8-5.7-12.8-12.8S49.6,20,56.7,20C63.7,20,69.5,25.8,69.5,32.8z M61.5,93.2h-9.9V67.7
		h9.9V93.2z M69.6,60H43.5v-6.5h26.1V60z"/>
</g>
</svg>
