<?xml version="1.0" encoding="utf-8"?>
<!-- Generator: Adobe Illustrator 22.1.0, SVG Export Plug-In . SVG Version: 6.00 Build 0)  -->
<svg version="1.1" id="Ebene_1" xmlns="http://www.w3.org/2000/svg" xmlns:xlink="http://www.w3.org/1999/xlink" x="0px" y="0px"
	 viewBox="0 0 113.4 113.4" style="enable-background:new 0 0 113.4 113.4;" xml:space="preserve">
<style type="text/css">
	.st0{fill:#0098DD;}
</style>
<path class="st0" d="M68.5,10.1c-0.9-0.2-1.9-0.1-2.7,0.4c-0.8,0.5-1.4,1.3-1.6,2.2l-1.8,7.5H51.1l-1.8-7.5
	c-0.2-0.9-0.8-1.7-1.6-2.2c-0.8-0.5-1.8-0.6-2.7-0.4c-21,5.4-35.7,24.3-35.7,46c0,26.2,21.3,47.4,47.4,47.4s47.4-21.3,47.4-47.4
	C104.1,34.3,89.5,15.4,68.5,10.1z M35.8,69.4c-5.5,0-9.9-4.5-9.9-9.9s4.5-9.9,9.9-9.9s9.9,4.5,9.9,9.9S41.3,69.4,35.8,69.4z
	 M56.2,90.2c-5.5,0-9.9-4.5-9.9-9.9s4.5-9.9,9.9-9.9s9.9,4.5,9.9,9.9S61.7,90.2,56.2,90.2z M56.7,49c-5.5,0-9.9-4.5-9.9-9.9
	s4.5-9.9,9.9-9.9s9.9,4.5,9.9,9.9S62.2,49,56.7,49z M77.1,69.8c-5.5,0-9.9-4.5-9.9-9.9s4.5-9.9,9.9-9.9s9.9,4.5,9.9,9.9
	S82.6,69.8,77.1,69.8z"/>
</svg>
