<?xml version="1.0" encoding="utf-8"?>
<!-- Generator: Adobe Illustrator 22.1.0, SVG Export Plug-In . SVG Version: 6.00 Build 0)  -->
<svg version="1.1" id="Ebene_1" xmlns="http://www.w3.org/2000/svg" xmlns:xlink="http://www.w3.org/1999/xlink" x="0px" y="0px"
	 viewBox="0 0 113.4 113.4" style="enable-background:new 0 0 113.4 113.4;" xml:space="preserve">
<style type="text/css">
	.st0{fill:#0098DD;}
</style>
<g>
	<path class="st0" d="M25.6,35.1c0-1.3-0.5-2.6-1.3-3.3l-9.9-9c-0.9-0.8-1.9-0.8-2.8-0.2c-0.9,0.7-1.5,2-1.5,3.5v61.2
		c0,1.5,0.6,2.8,1.5,3.5c0.4,0.3,0.9,0.5,1.3,0.5c0.5,0,1.1-0.2,1.5-0.7l9.9-9.3c0.8-0.7,1.2-2,1.2-3.3V35.1z"/>
	<path class="st0" d="M103.2,26.1c0-1.4-0.6-2.8-1.5-3.5c-0.9-0.7-2-0.6-2.8,0.2l-9.9,9c-0.8,0.7-1.3,2-1.3,3.3v42.9
		c0,1.3,0.5,2.6,1.2,3.3l9.9,9.3c0.5,0.4,1,0.7,1.5,0.7c0.5,0,0.9-0.2,1.3-0.5c0.9-0.7,1.5-2,1.5-3.5V26.1z"/>
	<path class="st0" d="M83.9,33.1c0-2.3-1.7-4.3-3.7-4.3h-47c-2,0-3.7,1.9-3.7,4.3v46.3c0,2.3,1.7,4.3,3.7,4.3h47
		c2,0,3.7-1.9,3.7-4.3V33.1z M39.1,40.1h35.3v6.2H39.1V40.1z M74.4,72.8H39.1v-6.2h35.3V72.8z M39.1,59.3v-6.2h35.3v6.2H39.1z"/>
</g>
</svg>
