<?xml version="1.0" encoding="utf-8"?>
<!-- Generator: Adobe Illustrator 22.1.0, SVG Export Plug-In . SVG Version: 6.00 Build 0)  -->
<svg version="1.1" id="Ebene_1" xmlns="http://www.w3.org/2000/svg" xmlns:xlink="http://www.w3.org/1999/xlink" x="0px" y="0px"
	 viewBox="0 0 113.4 113.4" style="enable-background:new 0 0 113.4 113.4;" xml:space="preserve">
<style type="text/css">
	.st0{fill:#0098DD;}
</style>
<g>
	<path class="st0" d="M44.7,87.7c-1.8,0-3.2,1.4-3.2,3.2v10.4c0,1.8,1.4,3.2,3.2,3.2s3.2-1.4,3.2-3.2V90.8
		C47.9,89.1,46.5,87.7,44.7,87.7z"/>
	<path class="st0" d="M68.7,87.7c-1.8,0-3.2,1.4-3.2,3.2v10.4c0,1.8,1.4,3.2,3.2,3.2c1.8,0,3.2-1.4,3.2-3.2V90.8
		C71.9,89.1,70.4,87.7,68.7,87.7z"/>
	<path class="st0" d="M34.2,61.1h44.8c2.3,0,4.2-1.9,4.2-4.2V35.6C83.2,20.9,71.3,9,56.7,9C42,9,30.1,20.9,30.1,35.6v21.3
		C30.1,59.2,31.9,61.1,34.2,61.1z M38.4,35.6c0-10.1,8.2-18.3,18.3-18.3c10.1,0,18.3,8.2,18.3,18.3v17.2H38.4V35.6z"/>
	<path class="st0" d="M82.2,65.2H31.2c-2.3,0-4.2,1.9-4.2,4.2v9.5c0,2.3,1.9,4.2,4.2,4.2h51.1c2.3,0,4.2-1.9,4.2-4.2v-9.5
		C86.4,67,84.5,65.2,82.2,65.2z"/>
</g>
</svg>
