<?xml version="1.0" encoding="UTF-8"?>
<svg width="36px" height="39px" viewBox="0 0 36 39" version="1.1" xmlns="http://www.w3.org/2000/svg" xmlns:xlink="http://www.w3.org/1999/xlink">
    <!-- Generator: Sketch 48.2 (47327) - http://www.bohemiancoding.com/sketch -->
    <title>Vrije tijd &amp; huishouden</title>
    <desc>Created with Sketch.</desc>
    <defs></defs>
    <g id="Home-–-Product-Categories-–-Icons" stroke="none" stroke-width="1" fill="none" fill-rule="evenodd" transform="translate(-1271.000000, -2367.000000)">
        <g id="ICONS" transform="translate(210.000000, 2214.000000)" fill="#0098DD" fill-rule="nonzero">
            <g id="Vrije-tijd-&amp;-huishouden" transform="translate(1061.000000, 153.000000)">
                <path d="M9.42680412,25.662 C8.35051546,27.3 8.16494845,28.899 8.9814433,30.42 C9.79793814,31.941 9.72371134,31.785 9.72371134,31.785 L10.7628866,30.693 L9.94639175,29.913 C10.243299,29.562 10.5773196,29.211 10.7628866,28.977 L10.8371134,28.899 L11.6536082,29.679 L12.5072165,28.665 L11.6907216,27.885 L12.5443299,26.871 L13.3608247,27.651 L14.214433,26.637 L13.3979381,25.857 L14.2515464,24.843 L15.0680412,25.623 L15.9216495,24.609 L15.1051546,23.829 L15.9587629,22.815 L16.7752577,23.595 L17.628866,22.581 L16.8123711,21.801 L17.6659794,20.787 L18.4824742,21.567 L19.3360825,20.553 L18.4453608,19.851 L19.2618557,18.798 L20.1154639,19.461 L20.1154639,15.639 L17.628866,15.639 L9.42680412,25.662 Z M25.8309278,9.477 L24.0865979,9.477 C22.4164948,9.477 21.043299,10.92 21.043299,12.675 L21.0061856,35.607 C21.0061856,37.362 22.3793814,38.805 24.0494845,38.805 L25.7938144,38.805 C27.4639175,38.805 28.8371134,37.362 28.8371134,35.607 L28.8742268,12.675 C28.8742268,10.92 27.5010309,9.477 25.8309278,9.477 Z M24.6061856,8.619 L25.8309278,8.619 C26.2020619,8.619 26.5360825,8.658 26.8701031,8.775 L25.2742268,2.808 C25.2371134,2.691 23.6041237,0.039 23.6041237,0.039 L22.0082474,0.624 C22.0082474,0.624 22.3793814,3.705 22.4164948,3.9 L24.6061856,8.619 Z M35.7402062,16.965 L29.6907216,23.244 L29.6907216,26.13 C29.6907216,26.13 32.956701,22.737 34.4412371,21.177 C35.9257732,19.617 36,17.199 36,17.199 L35.7402062,16.965 Z M5.75257732,9.984 C2.70927835,9.984 0,12.87 0,12.87 C0,12.87 1.29896907,14.82 8.49896907,14.82 C12.1731959,14.82 14.5484536,14.703 16.8494845,14.586 C17.5175258,14.547 19.3731959,14.508 20.2268041,14.469 L20.2268041,12.636 C20.2268041,11.622 20.5979381,10.686 21.1917526,9.984 C17.7402062,9.984 6.38350515,9.984 5.75257732,9.984 Z M10.9484536,11.427 C10.9113402,11.739 10.6886598,11.973 10.3917526,11.973 L6.16082474,11.973 C5.86391753,11.973 5.64123711,11.739 5.60412371,11.427 L5.60412371,10.803 L10.985567,10.803 L10.985567,11.427 L10.9484536,11.427 Z" id="Shape"></path>
            </g>
        </g>
    </g>
</svg>